<?xml version="1.0" encoding="UTF-8" standalone="no"?>
<svg
   xmlns:dc="http://purl.org/dc/elements/1.1/"
   xmlns:cc="http://creativecommons.org/ns#"
   xmlns:rdf="http://www.w3.org/1999/02/22-rdf-syntax-ns#"
   xmlns:svg="http://www.w3.org/2000/svg"
   xmlns="http://www.w3.org/2000/svg"
   xmlns:sodipodi="http://sodipodi.sourceforge.net/DTD/sodipodi-0.dtd"
   xmlns:inkscape="http://www.inkscape.org/namespaces/inkscape"
   height="67px"
   id="Layer_1"
   style="enable-background:new 0 0 67 67;"
   version="1.1"
   viewBox="0 0 67 67"
   width="67px"
   xml:space="preserve"
   inkscape:version="0.91 r"
   sodipodi:docname="twitter.svg"><metadata
     id="metadata9"><rdf:RDF><cc:Work
         rdf:about=""><dc:format>image/svg+xml</dc:format><dc:type
           rdf:resource="http://purl.org/dc/dcmitype/StillImage" /></cc:Work></rdf:RDF></metadata><defs
     id="defs7" /><sodipodi:namedview
     pagecolor="#ffffff"
     bordercolor="#666666"
     borderopacity="1"
     objecttolerance="10"
     gridtolerance="10"
     guidetolerance="10"
     inkscape:pageopacity="0"
     inkscape:pageshadow="2"
     inkscape:window-width="1920"
     inkscape:window-height="1023"
     id="namedview5"
     showgrid="false"
     inkscape:zoom="7.0447761"
     inkscape:cx="13.024059"
     inkscape:cy="32.553712"
     inkscape:window-x="0"
     inkscape:window-y="30"
     inkscape:window-maximized="1"
     inkscape:current-layer="Layer_1" /><path
     d="m 38.371519,20.369847 c -2.934453,1.067787 -4.788794,3.821848 -4.57815,6.835852 l 0.07059,1.163025 -1.174229,-0.142297 c -4.272268,-0.545658 -8.0056,-2.396638 -11.175347,-5.507001 l -1.54958,-1.542856 -0.398879,1.139495 c -0.844818,2.541176 -0.304762,5.222407 1.455462,7.026328 0.938935,0.997199 0.72717,1.139496 -0.891877,0.545659 -0.563585,-0.189356 -1.056582,-0.331653 -1.103641,-0.261065 -0.163585,0.166947 0.39888,2.32605 0.844818,3.180952 0.610644,1.187674 1.854341,2.350699 3.216806,3.038654 l 1.1507,0.545658 -1.361345,0.02353 c -1.314285,0 -1.361344,0.02353 -1.220167,0.522128 0.469467,1.542857 2.323809,3.180952 4.389914,3.893557 l 1.455462,0.497479 -1.267226,0.759663 c -1.877871,1.092437 -4.085153,1.708683 -6.292436,1.756862 -1.057702,0.02353 -1.926049,0.118768 -1.926049,0.189356 0,0.237535 2.864985,1.566386 4.531091,2.088515 5.000558,1.542857 10.941173,0.878431 15.401676,-1.755742 3.169747,-1.87563 6.338373,-5.602239 7.818485,-9.210081 0.798879,-1.922689 1.596638,-5.436413 1.596638,-7.120446 0,-1.092437 0.07059,-1.234734 1.384874,-2.540056 0.77535,-0.760784 1.50252,-1.589915 1.643697,-1.82745 0.235294,-0.45154 0.210644,-0.45154 -0.985994,-0.0493 -1.995518,0.713726 -2.277871,0.618488 -1.290756,-0.449299 0.72717,-0.759664 1.596638,-2.136694 1.596638,-2.541176 0,-0.06947 -0.351821,0.04706 -0.751821,0.261064 -0.422409,0.237535 -1.361344,0.593838 -2.066106,0.806723 l -1.267226,0.404481 -1.1507,-0.784313 c -0.634175,-0.426891 -1.524931,-0.901961 -1.99552,-1.044257 -1.197758,-0.330533 -3.029691,-0.283474 -4.109802,0.09636 z M 0.08917696,-0.11530154 l 67.22687104,0 0,67.22687154 -67.22687104,0 0,-67.22687154 z"
     style="clip-rule:evenodd;fill:#598dca;fill-rule:evenodd"
     id="path3"
     inkscape:connector-curvature="0" /></svg>