<?xml version="1.0" encoding="UTF-8" standalone="no"?>
<svg
   xmlns:dc="http://purl.org/dc/elements/1.1/"
   xmlns:cc="http://creativecommons.org/ns#"
   xmlns:rdf="http://www.w3.org/1999/02/22-rdf-syntax-ns#"
   xmlns:svg="http://www.w3.org/2000/svg"
   xmlns="http://www.w3.org/2000/svg"
   xmlns:sodipodi="http://sodipodi.sourceforge.net/DTD/sodipodi-0.dtd"
   xmlns:inkscape="http://www.inkscape.org/namespaces/inkscape"
   enable-background="new 0 0 128 128"
   height="128px"
   id="Layer_1"
   version="1.1"
   viewBox="0 0 128 128"
   width="128px"
   xml:space="preserve"
   inkscape:version="0.91 r"
   sodipodi:docname="1450337313_social-square-google-plus2.svg"><metadata
     id="metadata15"><rdf:RDF><cc:Work
         rdf:about=""><dc:format>image/svg+xml</dc:format><dc:type
           rdf:resource="http://purl.org/dc/dcmitype/StillImage" /></cc:Work></rdf:RDF></metadata><defs
     id="defs13"><clipPath
       clipPathUnits="userSpaceOnUse"
       id="clipPath4145"><rect
         style="opacity:0.8;fill:#ddbb33;fill-opacity:1;stroke:none;stroke-width:1.5;stroke-linecap:round;stroke-linejoin:miter;stroke-miterlimit:4;stroke-dasharray:none;stroke-opacity:1"
         id="rect4147"
         width="113.01696"
         height="113.01696"
         x="10.033897"
         y="6.0338979" /></clipPath></defs><sodipodi:namedview
     pagecolor="#ffffff"
     bordercolor="#666666"
     borderopacity="1"
     objecttolerance="10"
     gridtolerance="10"
     guidetolerance="10"
     inkscape:pageopacity="0"
     inkscape:pageshadow="2"
     inkscape:window-width="1920"
     inkscape:window-height="1023"
     id="namedview11"
     showgrid="false"
     inkscape:zoom="2.6074563"
     inkscape:cx="-20.035687"
     inkscape:cy="99.320256"
     inkscape:window-x="0"
     inkscape:window-y="30"
     inkscape:window-maximized="1"
     inkscape:current-layer="Layer_1" /><path
     d="m 128,112 c 0,8.8 -7.2,16 -16,16 l -96,0 C 7.2,128 0,120.8 0,112 L 0,16 C 0,7.2 7.2,0 16,0 l 96,0 c 8.8,0 16,7.2 16,16 l 0,96 z"
     id="path3"
     clip-path="url(#clipPath4145)"
     inkscape:connector-curvature="0"
     transform="matrix(1.1319736,0,0,1.1319736,-11.278679,-6.7391528)"
     style="fill:#d95032" /><g
     id="g5"><path
       d="M49.211,70.989h16.882c-1.939,7.841-7.911,12.214-17.033,12.214c-10.781,0-19.554-8.615-19.554-19.202   c0-10.59,8.772-19.204,19.554-19.204c4.715,0,9.268,1.671,12.821,4.706l8.116-9.161c-5.803-4.958-13.238-7.689-20.937-7.689   c-17.6,0-31.917,14.063-31.917,31.347c0,17.283,14.317,31.345,31.917,31.345c17.994,0,30.083-12.229,30.083-30.427v-6.073H49.211   V70.989z"
       fill="#FFFFFF"
       id="path7" /><polygon
       fill="#FFFFFF"
       points="117.143,58.741 106.143,58.741 106.143,47.741 98.143,47.741 98.143,58.741 87.143,58.741    87.143,66.741 98.143,66.741 98.143,77.741 106.143,77.741 106.143,66.741 117.143,66.741  "
       id="polygon9" /></g></svg>